<svg fill="#0d141a" viewBox="0 0 112.125 22.563" height="100%" width="100%" xmlns="http://www.w3.org/2000/svg"><path preserveAspectRatio="none" d="M4.02 18.10L0.44 18.10L0.44 5.73L4.02 5.73L4.02 18.10ZM2.23 4.00L2.23 4.00Q1.24 4.00 0.62 3.43Q0 2.85 0 2.00L0 2.00Q0 1.15 0.62 0.57Q1.24 0 2.23 0L2.23 0Q3.22 0 3.84 0.54Q4.46 1.08 4.46 1.93L4.46 1.93Q4.46 2.83 3.85 3.42Q3.24 4.00 2.23 4.00ZM14.88 5.54L14.88 5.54Q16.35 5.54 17.51 6.13Q18.68 6.72 19.34 7.92Q20.01 9.13 20.01 11.02L20.01 11.02L20.01 18.10L16.42 18.10L16.42 11.57Q16.42 10.07 15.77 9.36Q15.11 8.65 13.91 8.65L13.91 8.65Q13.06 8.65 12.39 9.00Q11.71 9.36 11.33 10.10Q10.95 10.83 10.95 11.98L10.95 11.98L10.95 18.10L7.36 18.10L7.36 5.73L10.79 5.73L10.79 9.15L10.14 8.12Q10.81 6.88 12.05 6.21Q13.29 5.54 14.88 5.54ZM28.31 18.29L28.31 18.29Q26.13 18.29 24.91 17.17Q23.69 16.05 23.69 13.85L23.69 13.85L23.69 2.99L27.28 2.99L27.28 13.80Q27.28 14.58 27.69 15.01Q28.11 15.43 28.82 15.43L28.82 15.43Q29.67 15.43 30.27 14.97L30.27 14.97L31.23 17.50Q30.68 17.89 29.91 18.09Q29.14 18.29 28.31 18.29ZM30.36 8.76L21.78 8.76L21.78 6.00L30.36 6.00L30.36 8.76ZM39.40 18.29L39.40 18.29Q37.28 18.29 35.68 17.46Q34.09 16.63 33.21 15.19Q32.34 13.75 32.34 11.91L32.34 11.91Q32.34 10.05 33.20 8.61Q34.06 7.18 35.56 6.36Q37.05 5.54 38.94 5.54L38.94 5.54Q40.76 5.54 42.22 6.31Q43.68 7.08 44.53 8.52Q45.38 9.96 45.38 11.96L45.38 11.96Q45.38 12.17 45.36 12.43Q45.33 12.70 45.31 12.93L45.31 12.93L35.26 12.93L35.26 10.83L43.42 10.83L42.04 11.45Q42.04 10.49 41.65 9.77Q41.26 9.06 40.57 8.66Q39.88 8.26 38.96 8.26L38.96 8.26Q38.04 8.26 37.34 8.66Q36.64 9.06 36.25 9.79Q35.86 10.51 35.86 11.50L35.86 11.50L35.86 12.05Q35.86 13.06 36.31 13.83Q36.75 14.60 37.57 15.01Q38.39 15.41 39.49 15.41L39.49 15.41Q40.48 15.41 41.23 15.11Q41.97 14.81 42.60 14.21L42.60 14.21L44.50 16.28Q43.65 17.25 42.37 17.77Q41.08 18.29 39.40 18.29ZM51.36 18.10L47.77 18.10L47.77 1.04L51.36 1.04L51.36 18.10ZM58.28 18.10L54.69 18.10L54.69 1.04L58.28 1.04L58.28 18.10ZM65.20 18.10L61.62 18.10L61.62 5.73L65.20 5.73L65.20 18.10ZM63.41 4.00L63.41 4.00Q62.42 4.00 61.80 3.43Q61.18 2.85 61.18 2.00L61.18 2.00Q61.18 1.15 61.80 0.57Q62.42 0 63.41 0L63.41 0Q64.40 0 65.02 0.54Q65.64 1.08 65.64 1.93L65.64 1.93Q65.64 2.83 65.03 3.42Q64.42 4.00 63.41 4.00ZM73.81 18.29L73.81 18.29Q72.06 18.29 70.66 17.50Q69.25 16.72 68.44 15.29Q67.62 13.87 67.62 11.91L67.62 11.91Q67.62 9.98 68.44 8.56Q69.25 7.13 70.66 6.34Q72.06 5.54 73.81 5.54L73.81 5.54Q75.44 5.54 76.60 6.23Q77.76 6.92 78.38 8.33Q79.00 9.73 79.00 11.91L79.00 11.91Q79.00 14.08 78.36 15.49Q77.72 16.90 76.54 17.59Q75.37 18.29 73.81 18.29ZM74.43 15.34L74.43 15.34Q75.30 15.34 76.02 14.93Q76.73 14.51 77.15 13.74Q77.58 12.97 77.58 11.91L77.58 11.91Q77.58 10.83 77.15 10.07Q76.73 9.31 76.02 8.90Q75.30 8.49 74.43 8.49L74.43 8.49Q73.53 8.49 72.82 8.90Q72.11 9.31 71.68 10.07Q71.25 10.83 71.25 11.91L71.25 11.91Q71.25 12.97 71.68 13.74Q72.11 14.51 72.82 14.93Q73.53 15.34 74.43 15.34ZM81.10 22.56L77.51 22.56L77.51 15.59L77.74 11.94L77.67 8.26L77.67 5.73L81.10 5.73L81.10 22.56ZM90.30 18.29L90.30 18.29Q88.32 18.29 86.79 17.46Q85.26 16.63 84.38 15.19Q83.49 13.75 83.49 11.91L83.49 11.91Q83.49 10.05 84.38 8.61Q85.26 7.18 86.79 6.36Q88.32 5.54 90.30 5.54L90.30 5.54Q92.25 5.54 93.79 6.36Q95.34 7.18 96.21 8.60Q97.08 10.03 97.08 11.91L97.08 11.91Q97.08 13.75 96.21 15.19Q95.34 16.63 93.79 17.46Q92.25 18.29 90.30 18.29ZM90.30 15.34L90.30 15.34Q91.20 15.34 91.91 14.93Q92.62 14.51 93.04 13.74Q93.45 12.97 93.45 11.91L93.45 11.91Q93.45 10.83 93.04 10.07Q92.62 9.31 91.91 8.90Q91.20 8.49 90.30 8.49L90.30 8.49Q89.40 8.49 88.69 8.90Q87.98 9.31 87.55 10.07Q87.12 10.83 87.12 11.91L87.12 11.91Q87.12 12.97 87.55 13.74Q87.98 14.51 88.69 14.93Q89.40 15.34 90.30 15.34ZM107.00 5.54L107.00 5.54Q108.47 5.54 109.63 6.13Q110.79 6.72 111.46 7.92Q112.13 9.13 112.13 11.02L112.13 11.02L112.13 18.10L108.54 18.10L108.54 11.57Q108.54 10.07 107.88 9.36Q107.23 8.65 106.03 8.65L106.03 8.65Q105.18 8.65 104.50 9.00Q103.82 9.36 103.44 10.10Q103.06 10.83 103.06 11.98L103.06 11.98L103.06 18.10L99.48 18.10L99.48 5.73L102.90 5.73L102.90 9.15L102.26 8.12Q102.92 6.88 104.17 6.21Q105.41 5.54 107.00 5.54Z"></path></svg>